<?xml version="1.0" encoding="UTF-8" standalone="no"?>
<!-- Generator: Adobe Illustrator 18.0.0, SVG Export Plug-In . SVG Version: 6.00 Build 0)  -->

<svg
   xmlns:dc="http://purl.org/dc/elements/1.1/"
   xmlns:cc="http://creativecommons.org/ns#"
   xmlns:rdf="http://www.w3.org/1999/02/22-rdf-syntax-ns#"
   xmlns:svg="http://www.w3.org/2000/svg"
   xmlns="http://www.w3.org/2000/svg"
   xmlns:sodipodi="http://sodipodi.sourceforge.net/DTD/sodipodi-0.dtd"
   xmlns:inkscape="http://www.inkscape.org/namespaces/inkscape"
   version="1.1"
   x="0px"
   y="0px"
   width="385.39999"
   height="385.39999"
   viewBox="0 0 385.39999 385.39999"
   enable-background="new 0 0 400 400"
   xml:space="preserve"
   id="svg2"
   inkscape:version="0.91 r13725"
   sodipodi:docname="160420_Logo_v1.svg"><metadata
   id="metadata63"><rdf:RDF><cc:Work
       rdf:about=""><dc:format>image/svg+xml</dc:format><dc:type
         rdf:resource="http://purl.org/dc/dcmitype/StillImage" /><dc:title></dc:title></cc:Work></rdf:RDF></metadata><defs
   id="defs61" /><sodipodi:namedview
   pagecolor="#ffffff"
   bordercolor="#666666"
   borderopacity="1"
   objecttolerance="10"
   gridtolerance="10"
   guidetolerance="10"
   inkscape:pageopacity="0"
   inkscape:pageshadow="2"
   inkscape:window-width="1920"
   inkscape:window-height="1017"
   id="namedview59"
   showgrid="false"
   fit-margin-top="0"
   fit-margin-left="0"
   fit-margin-right="0"
   fit-margin-bottom="0"
   inkscape:zoom="0.59"
   inkscape:cx="195.59999"
   inkscape:cy="196.39999"
   inkscape:window-x="-8"
   inkscape:window-y="-8"
   inkscape:window-maximized="1"
   inkscape:current-layer="svg2" />
<g
   id="Ebene_2"
   transform="translate(-4.4000092,-11)">
</g>
<g
   id="Ebene_1"
   transform="translate(-4.4000092,-11)">
	<linearGradient
   id="SVGID_1_"
   gradientUnits="userSpaceOnUse"
   x1="131.1474"
   y1="22.613199"
   x2="262.98889"
   y2="384.8447">
		<stop
   offset="0"
   style="stop-color:#FFFFFF"
   id="stop7" />
		<stop
   offset="0.437"
   style="stop-color:#FDFDFD"
   id="stop9" />
		<stop
   offset="0.7292"
   style="stop-color:#F6F5F6"
   id="stop11" />
		<stop
   offset="0.956"
   style="stop-color:#EAEAEA"
   id="stop13" />
	</linearGradient>
	<circle
   cx="197.10001"
   cy="203.7"
   r="192.7"
   id="circle15"
   style="fill:url(#SVGID_1_)" />
	<path
   d="m 126.9,136.1 c 5.5,-0.2 10.6,0.1 15.6,2.1 4.3,1.7 6,6.5 3.8,10.6 -0.8,1.5 -2.2,1.6 -3.6,1.7 -4.3,0.4 -8.7,-0.1 -13,0.8 -4.7,1 -6.5,2.5 -6.5,5.5 0,3.1 1.9,4.7 6.7,5.6 2.9,0.5 5.8,0.9 8.6,1.5 5,1.1 8.2,4.2 9.4,9.1 1.7,6.6 2,13.2 0.4,19.9 -1.5,5.9 -5.1,9.5 -10.6,11.5 -9,3.2 -18.3,3.3 -27.7,2.5 -2.9,-0.3 -5.8,-1 -8.4,-2.3 -3.7,-1.8 -5.1,-4 -4.8,-8.1 0.2,-2.7 0.8,-5.4 1.4,-8.1 0.6,-2.3 2,-3.2 4.1,-2.8 3.4,0.7 6.8,1.7 10.1,2.5 4.4,1.1 8.9,1.7 13.5,1.4 2.2,-0.2 4.7,-0.2 5.4,-3.2 0.5,-2.3 -1.1,-4.6 -4,-5.8 -3.4,-1.3 -7.1,-1.1 -10.6,-1.8 -3.7,-0.7 -7.3,-1.7 -10.7,-3.4 -4.3,-2.2 -7.1,-5.6 -7.9,-10.4 -0.8,-4.8 -0.9,-9.6 0.3,-14.4 1.8,-7.5 8.8,-12.9 17.5,-13.9 3.7,-0.3 7.5,-0.6 11,-0.5 z"
   id="path17"
   inkscape:connector-curvature="0"
   style="fill:#e65e54" />
	<path
   d="m 202.1,346.3 c -5.8,-0.2 -11.4,0.1 -16.9,-0.6 -3.9,-0.4 -5.7,-1.6 -6.7,-5.3 -1.1,-4.3 -1.1,-8.6 0,-12.9 0.6,-2.7 3,-3.8 6.3,-3 7.4,1.7 14.8,2.8 22.5,2.4 1.1,-0.1 2.2,-0.2 3.3,-0.5 1.4,-0.3 2.4,-1.1 2.5,-2.7 0,-1.7 -1,-2.6 -2.5,-3 -3.1,-0.9 -6.2,-0.7 -9.3,-0.4 -3.2,0.4 -6.4,0.2 -9.6,-0.4 -7.5,-1.5 -12.2,-6.7 -13.2,-15 -0.6,-4.8 -0.4,-9.6 0.8,-14.4 2.8,-10.6 7,-12.2 16.1,-13.5 5.2,-0.8 10.6,-0.3 15.7,1.1 3.1,0.8 5.7,2.2 6,5.8 0.4,3.8 -0.3,7.3 -3.3,9.7 -2.2,1.8 -5.1,1 -7.7,0.6 -1.9,-0.3 -3.7,-0.5 -5.6,-0.4 -1.6,0 -2.8,0.8 -3.3,2.3 -0.5,1.7 0.5,2.9 1.8,3.8 1,0.7 2.3,0.9 3.5,0.9 3,0 6.1,-0.1 9.1,-0.1 10.3,0.1 16.2,4.7 17.5,14.7 0.9,7.2 0.7,14.5 -0.8,21.7 -0.9,4.3 -3.6,6.9 -7.9,8 -6.1,1.7 -12.3,1 -18.3,1.2 z"
   id="path19"
   inkscape:connector-curvature="0"
   style="fill:#62b5b0" />
	<path
   d="m 97.1,316.1 c 0,-8 0,-16.1 0,-24.1 0,-4.2 0.9,-5.2 5.2,-5.3 4.5,-0.1 9.1,-0.1 13.6,-0.1 4.3,0.1 5.1,0.9 5.1,5.2 0,5.2 0,10.4 0.1,15.6 0,1.3 -0.2,3.1 1.3,3.4 1.5,0.4 2.5,-1.1 3.3,-2.3 1.6,-2.7 2,-5.7 2.1,-8.7 0.2,-3.3 -0.1,-6.6 0.6,-9.9 0.5,-2.3 1.7,-3.8 4.2,-3.9 5.1,-0.2 10.2,-0.4 15.3,-0.5 3,-0.1 3.9,0.9 3.8,3.9 -0.3,7.5 -3.6,14 -7.5,20.2 -2.5,3.8 -5.5,7.2 -8.7,10.4 -1.5,1.5 -1.5,2.6 0,4 3.8,3.5 7.6,7.1 11.3,10.7 1.7,1.6 3.1,3.4 3.5,5.7 0.5,2.5 -0.5,4.2 -3,4.6 -6.1,0.8 -12.2,0.7 -18.4,0.1 -2.6,-0.2 -4.1,-1.6 -4.7,-4.2 -0.6,-2.4 -1.4,-4.7 -2.3,-7 -0.5,-1.2 -1.4,-2.8 -3.1,-2.4 -1.7,0.4 -1.6,2.1 -1.7,3.5 -0.1,2.4 -0.2,4.7 -0.4,7.1 -0.2,2.1 -1.5,3.3 -3.6,3.3 -3.8,0.1 -7.6,0.2 -11.3,0 -3.5,-0.2 -4.7,-1.5 -4.7,-5 -0.1,-8 -0.1,-16.1 0,-24.3 0,0 0,0 0,0 z"
   id="path21"
   inkscape:connector-curvature="0"
   style="fill:#62b5b0" />
	<path
   d="m 160.7,256.5 c 1.5,2.5 2.8,5.1 5.2,7 -6.3,8.1 -14.8,8.9 -24.1,7.6 -4,-0.6 -7.9,-1.9 -12,-2.1 -5.6,-0.3 -10.3,2 -15,4.5 -1.6,0.9 -3.1,1.8 -4.7,2.6 -2.7,1.5 -4.8,1.3 -6.4,-0.6 -1.5,-1.9 -1.4,-4.2 0.5,-6.4 12.6,-14.1 23.6,-29.3 35,-44.3 0.7,-1 1.4,-1.9 2.5,-3.4 -7.7,0.9 -14.7,0 -21.7,0.7 -4.5,0.4 -7.6,3.1 -9.4,7.3 -1.8,4.2 -3.6,8.3 -5.6,12.4 -1.1,2.3 -2.5,4.4 -4.3,6.3 -5.1,5.4 -11,5.3 -15.9,-0.3 -3,-3.4 -5.2,-7.4 -7,-11.6 -4.4,-10.1 -7.1,-20.7 -9,-31.5 -0.3,-1.9 -1.1,-2.7 -2.7,-3.4 -3.5,-1.6 -6.7,-3.6 -8.9,-6.8 -0.7,-1 -1.3,-2.1 -1.2,-3.4 0.1,-1.5 0.7,-2.2 2.4,-1.7 2.9,0.9 3.1,0.7 2.5,-2.2 -0.1,-0.3 -0.2,-0.5 -0.2,-0.8 -0.1,-1.3 0,-2.5 1.2,-3.3 1.2,-0.7 2.1,0.1 3.1,0.7 2.8,2 2.8,1.9 4.2,-1.1 0.3,-0.6 0.5,-1.2 0.9,-1.8 1.2,-1.7 2.4,-1.6 3.6,0 1,1.3 1.2,3 1.7,4.5 0.2,0.6 0.4,1.3 1.2,1.5 0.9,0.2 1.4,-0.5 1.8,-1.1 0.2,-0.4 0.4,-0.8 0.7,-1.2 0.4,-0.7 0.8,-1.6 1.9,-1.5 1.1,0.2 1.4,1.2 1.5,2.2 0.2,2.1 -0.1,4.2 -0.7,6.2 -0.4,1.4 -0.6,2.9 -1.4,4 -3.7,4.8 -2.6,9.8 -1.3,15 2.3,9.2 4.6,18.3 8.9,26.8 1.1,2.2 2.1,5 4.9,4.9 2.5,-0.1 3.3,-2.9 4.2,-4.9 1.8,-3.7 3.5,-7.4 4.8,-11.2 2.8,-8 8.4,-11.8 16.8,-12.5 9.7,-0.8 19.5,-0.1 29.2,-1 2.1,-0.2 4,0.5 5.1,2.4 1.2,2.1 0.5,4 -0.8,5.8 -9.1,13.6 -18,27.3 -28.6,39.9 -0.2,0.3 -0.4,0.6 -0.9,1.3 2.2,-0.5 4,-1 5.8,-1.4 4,-0.9 8,-0.9 12,0.4 3.4,1.1 6.9,2.2 10.5,1.9 4.3,-0.5 7.7,-2.5 9.7,-6.4 z"
   id="path23"
   inkscape:connector-curvature="0"
   style="fill:#f2af3f" />
	<path
   d="m 153.9,169.9 c 0,-8.4 0.1,-16.8 0.4,-25.2 0.1,-3.8 1.8,-6 5.1,-7.3 3.6,-1.5 7.5,-2 11.4,-2.2 4.3,-0.2 8.5,0.2 12.7,1.1 8.4,1.8 13.8,7.4 15.4,15.8 1,5.3 1,10.6 0.4,15.8 -1.1,10.6 -8.5,17.3 -19.8,18.2 -0.6,0 -1.1,0.1 -1.7,0.1 -6.7,0.3 -7.9,1.4 -9.3,7.9 -1.2,5.5 -2.7,7.1 -7.6,7.6 -4.2,0.5 -6.3,-1.3 -6.4,-5.5 -0.4,-8.7 -0.6,-17.5 -0.6,-26.3 z"
   id="path25"
   inkscape:connector-curvature="0"
   style="fill:#e65e54" />
	<path
   d="m 226.7,165.8 c 0,-7.7 -0.1,-15.3 -0.1,-23 0,-5 1.2,-6.2 6.2,-6.2 10.3,0 20.6,0 30.9,0 3.5,0 4.5,1 4.8,4.5 0,0.1 0,0.2 0,0.3 0.5,8.6 -0.9,10 -9.5,9.5 -3.2,-0.2 -6.4,-0.6 -9.6,0 -3.6,0.6 -5.6,2.9 -5.3,6.2 0.2,2.2 1.3,3.6 3.6,4.1 2.8,0.7 5.7,0 8.5,-0.1 2.1,0 4.1,0.3 4.9,2.5 1.1,2.8 1.5,5.7 0.1,8.5 -0.7,1.4 -2.4,1.3 -3.8,1.4 -3.5,0.3 -7,0.1 -10.5,0.6 -2.6,0.3 -3.8,1.6 -3.8,4.1 0,2.4 1,4.1 3.6,4.6 4.7,0.9 9.4,0 14.1,-0.4 7.5,-0.6 8.7,0.3 9,7.7 0,1.3 0.1,2.7 -0.1,4 -0.4,2.4 -1.7,3.9 -4.3,4 -10.9,0.4 -21.8,0 -32.6,-0.1 -3.1,0 -4.9,-1.9 -5.6,-5 -1.3,-5.4 -0.4,-11 -0.4,-16.4 -0.1,-3.6 -0.1,-7.2 -0.1,-10.8 z"
   id="path27"
   inkscape:connector-curvature="0"
   style="fill:#e65e54" />
	<path
   d="m 266.3,323.3 c 0,-6.6 -0.1,-12 1,-17.3 0.6,-3 1.9,-5.3 4.7,-6.7 2,-1 3.4,-2.6 3.7,-4.8 1.6,-10.2 7.9,-12.1 17.7,-11.7 0.4,0 0.7,0.2 1.1,0.2 8.9,0.2 9.3,5.1 8.3,12.1 -0.3,2.1 -1.6,3.1 -3.7,3.2 -1.5,0.1 -3,0 -4.5,0.1 -2.3,0.1 -4,1 -4,3.7 0,2.7 2,2.9 3.9,3 1.5,0.1 3,0 4.5,0.2 3.3,0.3 4.3,1.3 4.7,4.6 0.1,1 0.1,2.1 0.1,3.1 -0.2,4.6 -1.9,6.2 -6.4,5.6 -2.6,-0.4 -5.1,0 -7.6,0.5 -1.3,0.2 -2.5,0.9 -2.5,2.6 0,1.6 0.7,2.7 2.1,3.4 1.1,0.5 2.3,0.7 3.6,0.7 2.6,-0.1 5.3,0 7.9,-0.2 2.4,-0.1 3.6,1.1 3.9,3.2 0.7,4.2 0.9,8.5 0.1,12.7 -0.5,2.7 -2.2,4.1 -4.9,4.1 -8.8,0.1 -17.6,0 -26.4,0.4 -5,0.2 -6.6,-1.6 -6.7,-6.6 -0.1,-5.7 -0.9,-11.5 -0.6,-16.1 z"
   id="path29"
   inkscape:connector-curvature="0"
   style="fill:#62b5b0" />
	<path
   d="m 237.4,321 c 0,-6.1 0.1,-12.3 0,-18.4 0,-3.2 -0.9,-3.9 -4,-3.1 -5.6,1.4 -6.7,0.1 -8.9,-3.2 -2.5,-3.8 -2.2,-9.7 0.2,-12.6 1.1,-1.3 2.6,-1.9 4.2,-2.2 7.5,-1.3 15,-1.7 22.5,-2.2 4,-0.3 8.1,-0.6 12.2,-0.1 5.2,0.7 7,2.5 6.8,7.7 -0.1,1.4 -0.2,2.8 -0.5,4.2 -0.7,3.6 -2.3,5 -6,5.2 -0.8,0 -1.5,0.1 -2.3,0.1 -2.2,0.1 -3.3,1.1 -3.2,3.4 0,1.3 0,2.6 0,4 0.3,11.1 0.7,22.1 1.1,33.2 0,1.5 0.1,3 -0.1,4.5 -0.4,3.1 -1.7,4.2 -4.8,4.3 -4,0 -7.9,0 -11.9,0.1 -2.8,0.1 -4.2,-1.3 -4.8,-3.8 -0.3,-1.4 -0.5,-2.8 -0.5,-4.2 0,-5.8 0,-11.3 0,-16.9 0,0 0,0 0,0 z"
   id="path31"
   inkscape:connector-curvature="0"
   style="fill:#62b5b0" />
	<path
   d="m 273.6,164.5 c -0.2,-7.3 -0.3,-14.6 -0.3,-21.8 0,-5.4 0.8,-6 6.1,-5.9 3.3,0.1 6.6,0 9.9,0 2.5,0 4,1.1 4,4 0,10.6 0.2,21.2 0.3,31.8 0,1.1 0,2.3 0.1,3.4 0.3,3.1 1.5,4.1 4.7,4 6.6,-0.2 7,0.2 7.3,6.9 0.1,2.4 0.1,4.7 0,7.1 -0.1,2.4 -1.4,3.9 -3.9,4 -6.5,0.3 -13,0.7 -19.6,0.2 -4.5,-0.3 -7,-2.7 -7.3,-7.2 -0.6,-8.9 -1.1,-17.7 -1.3,-26.5 z"
   id="path33"
   inkscape:connector-curvature="0"
   style="fill:#e65e54" />
	<path
   d="m 173.3,329.9 c 0,0.2 0,0.3 0,0.5 0,5.1 1.7,15 -5.6,15.2 -2.6,0.1 -5.3,-0.1 -7.9,0 -2.6,0.1 -3.9,-1.2 -4.2,-3.6 -1.9,-12.3 -1.5,-25.2 -0.1,-37.6 0.4,-3.6 1.7,-5.3 5.2,-6.1 0.8,-0.2 1.7,-0.4 2.5,-0.4 5.9,-0.5 8.6,1.3 9.1,7.2 0.6,8.4 1.1,16.6 1,24.8 z"
   id="path35"
   inkscape:connector-curvature="0"
   style="fill:#62b5b0" />
	<path
   d="m 204.1,180.3 c 0.1,-5.4 0.3,-10.8 0.4,-16.1 0.1,-5.1 2.5,-7.1 7.6,-7 5.2,0.1 7.4,2.3 7.8,7.2 0.6,9.2 0.7,18.3 0.5,27.5 -0.1,2.6 -0.4,5.3 -1.1,7.8 -0.8,2.7 -2.4,4.2 -5.3,4 -0.6,0 -1.1,0 -1.7,0 -6.7,0.1 -8.2,-1.5 -8.3,-8.4 -0.1,-5 -0.1,-10 0.1,-15 z"
   id="path37"
   inkscape:connector-curvature="0"
   style="fill:#e65e54" />
	<path
   d="m 285.6,81 c 7.4,0 13.2,5.5 13.1,12.4 -0.1,7.2 -6,13.5 -12.6,13.5 -5.6,-0.1 -12.3,-7.3 -12.2,-13.2 0,-7.4 4.9,-12.7 11.7,-12.7 z"
   id="path39"
   inkscape:connector-curvature="0"
   style="fill:#e65e54" />
	<path
   d="m 163.7,95.2 c -6.8,0 -13.2,-5.7 -13.2,-11.6 0,-6.3 6.6,-11.8 14,-11.7 7.5,0.1 12.2,4 12,9.9 -0.1,7.1 -6.2,13.5 -12.8,13.4 z"
   id="path41"
   inkscape:connector-curvature="0"
   style="fill:#e65e54" />
	<path
   d="m 77.3,152 c -0.1,7.8 -4.9,12.3 -13,12.1 -5.8,-0.2 -11.1,-6.6 -10.9,-13.4 0.1,-5.6 6.8,-11.3 13,-11.1 6.2,0.1 11,5.6 10.9,12.4 z"
   id="path43"
   inkscape:connector-curvature="0"
   style="fill:#e65e54" />
	<path
   d="m 113,96.6 c -0.4,1.3 -0.9,3 -1.5,4.6 -1,3 -2.2,6 -3.2,9.1 -0.8,2.5 -2.3,3.3 -4.7,2.6 -5.1,-1.5 -9.9,-3.6 -14.7,-5.9 -1.7,-0.8 -2.4,-2.3 -1.6,-4.3 1.5,-3.9 2.8,-7.8 4.3,-11.7 0.8,-2.2 2.4,-3.2 4.9,-2.6 4.7,1 9.3,2.3 13.7,4.3 1.5,0.7 2.8,1.6 2.8,3.9 z"
   id="path45"
   inkscape:connector-curvature="0"
   style="fill:#f4af28" />
	<path
   d="m 219.5,68.6 c 6.6,0.5 13.3,2.4 20,4.5 2.6,0.8 3.2,3.1 1.4,5.1 -5.1,5.4 -9.8,11.3 -15.4,16.2 -2.7,2.3 -4.8,1.6 -5.7,-2 -1.5,-6.4 -3,-12.8 -4.5,-19.3 -0.9,-3.5 0,-4.6 4.2,-4.5 z"
   id="path47"
   inkscape:connector-curvature="0"
   style="fill:#f4af28" />
	<path
   d="m 324,151.7 c -1.5,0 -2.4,-0.5 -2.9,-1.7 -2,-4.7 -3.9,-9.4 -6.6,-13.7 -1,-1.7 -0.1,-3 1.2,-3.8 4.2,-2.7 8.7,-4.9 13.5,-6.3 1.6,-0.5 2.8,0.2 3.5,1.6 2.1,4.4 4.2,8.8 6.3,13.3 0.6,1.3 0.3,2.5 -0.9,3.2 -4.2,2.6 -8.3,5.3 -12.8,7.1 -0.3,0.2 -0.9,0.2 -1.3,0.3 z"
   id="path49"
   inkscape:connector-curvature="0"
   style="fill:#f4af28" />
	<path
   d="m 220.4,146.4 c 0,5.9 -2.1,7.8 -8.5,7.8 -7.1,0 -8.9,-2 -8.9,-9.8 0,-4.8 1.9,-7.2 6.2,-6.9 8,0.7 11.1,1.5 11.2,8.9 z"
   id="path51"
   inkscape:connector-curvature="0"
   style="fill:#e65f54" />
	<path
   d="m 164.6,294.7 c -0.5,0 -1.7,0 -2.9,-0.3 -5.3,-1 -6.5,-2.6 -6,-7.6 0.5,-4.8 3,-7 7.9,-6.8 1.7,0.1 3.4,0.3 5,0.6 3.9,0.8 5.5,3.2 5,7.1 -0.8,6.1 -2,7.1 -9,7 z"
   id="path53"
   inkscape:connector-curvature="0"
   style="fill:#62b5b0" />
	<path
   d="m 338.5,181.2 c -2.4,1.5 -3,0.8 -2.8,-1.7 0.1,-1.3 0.3,-2.8 -1.3,-3.5 -1.7,-0.8 -2.6,0.5 -3.5,1.6 -1.1,1.4 -2.1,1.5 -3.1,-0.1 -0.4,-0.6 -0.8,-1.3 -1.3,-1.8 -1.6,-1.7 -3,-1.4 -3.7,0.8 -0.4,1.2 -0.4,2.6 -0.6,3.9 -0.3,1.7 -1.1,2.1 -2.5,1 -0.9,-0.7 -1.8,-1.7 -3,-0.9 -1.2,0.9 -0.6,2.3 -0.2,3.4 1.1,2.9 2.8,5.4 4.9,7.6 1.3,1.4 1.7,2.8 1.7,4.6 -0.3,13 -5.3,24 -14.7,33 -3.5,3.4 -7.4,6.3 -12,8.4 -0.2,-2.7 -0.4,-5 -0.7,-7.4 -0.7,-6.5 -1.5,-13 -5.6,-18.4 -4.4,-5.7 -10.4,-7.6 -17.1,-5.2 -6.5,2.3 -9.4,7.4 -10.7,13.8 -1.5,7.4 -2.6,14.9 -5.1,22.1 -0.7,2.1 -1.5,4.1 -3.1,5.7 -1.7,1.7 -3.4,1.5 -4.7,-0.5 -1,-1.6 -1.5,-3.5 -1.9,-5.3 -1.5,-7.3 -2,-14.8 -2.8,-22.2 -0.3,-3 -2.2,-4.6 -5.2,-4.3 -2.8,0.3 -4.1,2 -3.7,5.2 0.7,4.9 0.7,9.8 0.3,14.7 -0.5,5.5 -1.4,10.9 -5.2,15.3 -3.5,4 -8,3.9 -11.4,-0.1 -1.4,-1.7 -2.5,-3.6 -3.2,-5.7 -1,-2.9 -1.6,-5.8 -1.7,-8.9 -0.1,-4.8 -0.1,-9.6 -0.2,-14.5 -0.1,-3.2 -1.6,-4.7 -4.1,-4.8 -2.5,0 -4.1,1.4 -4.4,4.5 -0.4,4 -1,8.1 -2.1,12 -2.4,8 -5.4,15.6 -11.6,21.4 -5.1,4.8 -11.2,5.7 -17.2,2.8 -1.7,-0.8 -2.1,-1.4 -0.7,-3 2.5,-2.7 4.9,-5.5 7.1,-8.5 4.5,-6.2 8.1,-12.8 8.4,-20.7 0.2,-6.2 -3.6,-10.4 -9.8,-11 -3.8,-0.4 -7.3,0.5 -10.5,2.6 -12.1,7.9 -16.4,27 -8.8,39.4 0.8,3 1.8,5.8 5.2,7 7.8,5 16,6.2 24.6,2.4 6.9,-3 11.5,-8.4 15.2,-14.7 0.7,-1.2 1.4,-2.3 2.3,-3.8 2.4,8.4 5.6,15.9 15,17 9.7,1.2 14.9,-5.1 18.7,-13.2 0.5,0.9 1,1.6 1.4,2.3 4.5,6.9 11.5,7.1 16.5,0.5 1.7,-2.3 3,-4.8 4,-7.5 1,-2.8 1.9,-5.7 3,-8.7 3.1,3.7 6.7,5.7 11.5,5.4 4.5,-0.3 8.1,-2.5 11.1,-6 0.9,2.9 0.7,4.6 -2.1,6 -4.9,2.5 -9.2,6 -12.7,10.3 -3.3,4 -5.6,8.4 -5.1,13.7 0.5,5.2 2.5,9.6 7.8,11.5 5.2,1.9 9.6,0.1 13.4,-3.7 2.3,-2.4 3.8,-5.4 4.9,-8.5 1.8,-5.3 2.5,-10.9 2.3,-16.5 -0.1,-2.2 0.6,-3.3 2.5,-4.4 16.6,-9.4 27.5,-23.3 31.1,-42.2 1,-5.3 2.4,-9.8 6.5,-13.5 1.9,-1.8 3.2,-4.2 3.2,-7.1 -0.1,-1.6 -1,-2.5 -2.5,-1.6 z M 172.3,226 c 1.9,-1.4 4.3,-3.4 6.6,-1.8 2.5,1.7 1.2,4.5 0.5,6.8 -1.5,4.9 -7.6,14 -12,18.3 -3.1,-6.5 -1.5,-18.6 4.9,-23.3 z m 108.5,7 c -2.5,1.8 -5,1.5 -7.2,-0.6 -4.1,-4 -3.9,-11.9 0.4,-15.6 2.2,-1.9 4.7,-2.4 7.4,-1.2 3.2,1.5 4.2,4.4 4.3,7.7 0,4.1 -1.5,7.4 -4.9,9.7 z m 5.9,31.5 c -1.7,2.9 -4.7,4.4 -6.4,3.5 -1.7,-0.9 -2.4,-3.9 -1.2,-7 1.9,-5.2 6,-8.5 11.1,-11.4 -0.4,5.5 -0.9,10.4 -3.5,14.9 z"
   id="path55"
   inkscape:connector-curvature="0"
   style="fill:#f4af28" />
	<path
   d="m 166.3,160 c 0.2,-1.3 0.3,-2.6 0.6,-3.9 0.9,-3.9 3.1,-6 6.6,-6.3 4.2,-0.4 7.6,1.3 9.2,4.7 1.6,3.4 1.8,6.9 0.7,10.5 -1.1,3.5 -5.4,6 -9.8,5.8 -3.5,-0.2 -5.7,-2.3 -6.6,-6.3 -0.4,-1.5 -0.7,-2.9 -0.7,-4.5 z"
   id="path57"
   inkscape:connector-curvature="0"
   style="fill:#ffffff" />
</g>
</svg>